<?xml version="1.0" encoding="UTF-8"?>
<svg version="1.1" xmlns="http://www.w3.org/2000/svg" width="163" height="40">
<path d="M0 0 C1.66611905 -0.042721 3.33382885 -0.04063832 5 0 C5.33 0.33 5.66 0.66 6 1 C7.51416909 1.10859551 9.03285497 1.15576116 10.55078125 1.17578125 C11.94006836 1.21155273 11.94006836 1.21155273 13.35742188 1.24804688 C15.31553883 1.29075531 17.2739378 1.32214653 19.23242188 1.34179688 C26.19388185 1.54924163 26.19388185 1.54924163 29.640625 3.4765625 C31.70083834 7.30098151 31.54276537 10.78736781 31.4375 15.0625 C31.44458984 15.87783203 31.45167969 16.69316406 31.45898438 17.53320312 C31.39662358 23.37113296 31.39662358 23.37113296 29.90844727 25.73071289 C26.99712519 27.66700091 24.4956181 27.38916267 21.03125 27.3984375 C20.35453247 27.40130768 19.67781494 27.40417786 18.98059082 27.40713501 C17.55166791 27.40917397 16.12271698 27.40365569 14.69384766 27.39111328 C12.50750275 27.37505511 10.32300621 27.39096534 8.13671875 27.41015625 C6.74739176 27.40817379 5.35806591 27.40433004 3.96875 27.3984375 C2.70482422 27.39505371 1.44089844 27.39166992 0.13867188 27.38818359 C-3 27 -3 27 -4.91723633 25.64379883 C-6.52933105 23.1963955 -6.28949843 21.20245562 -6.1875 18.3125 C-6.16042969 17.31863281 -6.13335937 16.32476563 -6.10546875 15.30078125 C-6.07066406 14.54152344 -6.03585938 13.78226563 -6 13 C-6.66 13 -7.32 13 -8 13 C-8.375 9.75 -8.375 9.75 -8 6 C-3.28205128 2 -3.28205128 2 0 2 C0 1.34 0 0.68 0 0 Z M11 9 C9.68 10.65 8.36 12.3 7 14 C7.56076801 16.49004504 7.56076801 16.49004504 9 19 C12.02982306 20.37189827 12.02982306 20.37189827 15 21 C16.32 19.35 17.64 17.7 19 16 C18.43923199 13.50995496 18.43923199 13.50995496 17 11 C13.97017694 9.62810173 13.97017694 9.62810173 11 9 Z M2 16 C3 18 3 18 3 18 Z " fill="#FFBF00" transform="translate(9,7)"/>
<path d="M0 0 C3.65706566 0.68569981 5.38806014 1.95056014 8 4.5625 C8 5.2225 8 5.8825 8 6.5625 C6.35 6.5625 4.7 6.5625 3 6.5625 C3 5.9025 3 5.2425 3 4.5625 C1.02 5.2225 -0.96 5.8825 -3 6.5625 C-2.67 8.5425 -2.34 10.5225 -2 12.5625 C1.3 12.2325 4.6 11.9025 8 11.5625 C6 15.5625 6 15.5625 3.1875 16.9375 C-0.46700223 17.65406906 -1.82770057 17.44873209 -5 15.5625 C-7.38125002 13.26336205 -7.94206985 11.90283963 -8.5 8.625 C-7.67138661 3.54974299 -5.04695941 0.94630489 0 0 Z " fill="#F5F5F5" transform="translate(53,11.4375)"/>
<path d="M0 0 C2.475 0.495 2.475 0.495 5 1 C5.33 1.99 5.66 2.98 6 4 C6.5775 3.34 7.155 2.68 7.75 2 C10 0 10 0 14 0 C13.690625 0.721875 13.38125 1.44375 13.0625 2.1875 C10.90750695 7.71393643 10.90750695 7.71393643 12.4375 13.3125 C12.953125 14.199375 13.46875 15.08625 14 16 C12.35 16 10.7 16 9 16 C8.67 15.34 8.34 14.68 8 14 C7.34 14 6.68 14 6 14 C5.67 14.66 5.34 15.32 5 16 C3.35 16 1.7 16 0 16 C0.515625 15.113125 1.03125 14.22625 1.5625 13.3125 C3.54708798 8.73931899 2.63789812 6.68855386 0.9375 2.1875 C0.628125 1.465625 0.31875 0.74375 0 0 Z " fill="#F5F5F5" transform="translate(114,12)"/>
<path d="M0 0 C2 3 2 3 2 7 C0.35 7.33 -1.3 7.66 -3 8 C-1.68 8 -0.36 8 1 8 C0.3125 9.9375 0.3125 9.9375 -1 12 C-3.868554 13.05683569 -5.36314145 13.2299767 -8.25 12.1875 C-10 11 -10 11 -11 9 C-11.57003257 2.72964169 -11.57003257 2.72964169 -9.4375 0 C-5.94857191 -1.43135511 -3.60244028 -0.933966 0 0 Z M-7 3 C-3 4 -3 4 -3 4 Z " fill="#F5F5F5" transform="translate(107,16)"/>
<path d="M0 0 C1.423125 -0.061875 2.84625 -0.12375 4.3125 -0.1875 C5.51326172 -0.23970703 5.51326172 -0.23970703 6.73828125 -0.29296875 C9 0 9 0 10.78125 1.1875 C12.42341401 3.62969263 12.30107677 5.27236294 12.1875 8.1875 C12.16042969 9.08855469 12.13335937 9.98960938 12.10546875 10.91796875 C12.07066406 11.60503906 12.03585938 12.29210938 12 13 C10.68 13 9.36 13 8 13 C8 10.03 8 7.06 8 4 C6.68 4 5.36 4 4 4 C3.67 6.97 3.34 9.94 3 13 C2.01 13 1.02 13 0 13 C0 8.71 0 4.42 0 0 Z " fill="#F5F5F5" transform="translate(78,15)"/>
<path d="M0 0 C0.99 0.33 1.98 0.66 3 1 C3 6.61 3 12.22 3 18 C1.68 18 0.36 18 -1 18 C-1.02684312 15.18743719 -1.04676188 12.37512759 -1.0625 9.5625 C-1.07087891 8.76005859 -1.07925781 7.95761719 -1.08789062 7.13085938 C-1.0965143 5.08704779 -1.0522815 3.04316098 -1 1 C-0.67 0.67 -0.34 0.34 0 0 Z " fill="#F5F5F5" transform="translate(68,10)"/>
<path d="M0 0 C0.33 0 0.66 0 1 0 C1 5.61 1 11.22 1 17 C0.67 17 0.34 17 0 17 C0 11.39 0 5.78 0 0 Z " fill="#FFBF00" transform="translate(41,13)"/>
<path d="M0 0 C4.29 0 8.58 0 13 0 C13 0.33 13 0.66 13 1 C8.71 1 4.42 1 0 1 C0 0.67 0 0.34 0 0 Z " fill="#FFBF00" transform="translate(24,35)"/>
<path d="M0 0 C4.29 0 8.58 0 13 0 C13 0.33 13 0.66 13 1 C8.71 1 4.42 1 0 1 C0 0.67 0 0.34 0 0 Z " fill="#FFBF00" transform="translate(7,35)"/>
<path d="M0 0 C0.33 0 0.66 0 1 0 C1 2.97 1 5.94 1 9 C0.67 9 0.34 9 0 9 C0 6.03 0 3.06 0 0 Z " fill="#FFBF00" transform="translate(1,21)"/>
<path d="M0 0 C0.66 1.32 1.32 2.64 2 4 C1.34 4 0.68 4 0 4 C0 2.68 0 1.36 0 0 Z " fill="#FFBF00" transform="translate(18,21)"/>
<path d="M0 0 C1.65 0 3.3 0 5 0 C5 0.33 5 0.66 5 1 C3.35 1 1.7 1 0 1 C0 0.67 0 0.34 0 0 Z " fill="#FFBF00" transform="translate(9,5)"/>
<path d="M0 0 C3 1 3 1 3 1 Z " fill="#FFBF00" transform="translate(21,25)"/>
<path d="" fill="#FFBF00" transform="translate(0,0)"/>
<path d="M0 0 C2 1 2 1 2 1 Z " fill="#FFBF00" transform="translate(23,18)"/>
<path d="M0 0 C2 1 2 1 2 1 Z " fill="#FFBF00" transform="translate(20,17)"/>
<path d="M0 0 C2 1 2 1 2 1 Z " fill="#FFBF00" transform="translate(3,10)"/>
<path d="" fill="#FFBF00" transform="translate(0,0)"/>
<path d="" fill="#FFBF00" transform="translate(0,0)"/>
<path d="" fill="#FFBF00" transform="translate(0,0)"/>
<path d="" fill="#FFBF00" transform="translate(0,0)"/>
<path d="" fill="#FFBF00" transform="translate(0,0)"/>
<path d="" fill="#FFBF00" transform="translate(0,0)"/>
<path d="" fill="#FFBF00" transform="translate(0,0)"/>
<path d="" fill="#FFBF00" transform="translate(0,0)"/>
<path d="" fill="#FFBF00" transform="translate(0,0)"/>
<path d="" fill="#FFBF00" transform="translate(0,0)"/>
<path d="" fill="#FFBF00" transform="translate(0,0)"/>
<path d="" fill="#FFBF00" transform="translate(0,0)"/>
<path d="" fill="#FFBF00" transform="translate(0,0)"/>
<path d="" fill="#FFBF00" transform="translate(0,0)"/>
<path d="" fill="#FFBF00" transform="translate(0,0)"/>
<path d="" fill="#FFBF00" transform="translate(0,0)"/>
<path d="" fill="#FFBF00" transform="translate(0,0)"/>
<path d="" fill="#FFBF00" transform="translate(0,0)"/>
<path d="" fill="#FFBF00" transform="translate(0,0)"/>
<path d="" fill="#FFBF00" transform="translate(0,0)"/>
</svg>
