<?xml version="1.0" encoding="UTF-8"?>
<svg version="1.1" xmlns="http://www.w3.org/2000/svg" width="26" height="37">
<path d="M0 0 C3 1 3 1 4.8125 3.8125 C7.1802928 7.26271236 9.51108975 8.77978439 13 11 C13 11.66 13 12.32 13 13 C11.9275 13.515625 10.855 14.03125 9.75 14.5625 C5.53003795 16.93355373 4.06854018 19.69743642 2 24 C1.34 24 0.68 24 0 24 C-0.515625 22.9275 -1.03125 21.855 -1.5625 20.75 C-3.93355373 16.53003795 -6.69743642 15.06854018 -11 13 C-10 10 -10 10 -7.1875 8.1875 C-3.5671566 5.70295061 -2.19800892 3.7197074 0 0 Z " fill="#F1B400" transform="translate(12,7)"/>
</svg>
